<mxfile host="app.diagrams.net" modified="2022-06-23T06:39:14.983Z" agent="5.0 (Macintosh; Intel Mac OS X 10_14_6) AppleWebKit/537.36 (KHTML, like Gecko) Chrome/102.0.0.0 Safari/537.36" etag="0KO67_SvdcKQKI1RNGqC" version="20.0.2" type="github">
  <diagram id="x8knKWqIQl5RkP6iHov5" name="第 1 页">
    <mxGraphModel dx="2152" dy="758" grid="1" gridSize="10" guides="1" tooltips="1" connect="1" arrows="1" fold="1" page="1" pageScale="1" pageWidth="827" pageHeight="1169" math="0" shadow="0">
      <root>
        <mxCell id="0" />
        <mxCell id="1" parent="0" />
        <mxCell id="lDYMOAmmrBvU-g56APDV-1" value="Wechat 小程序" style="rounded=0;whiteSpace=wrap;html=1;fillColor=#d5e8d4;strokeColor=#82b366;" vertex="1" parent="1">
          <mxGeometry x="80" y="80" width="200" height="40" as="geometry" />
        </mxCell>
        <mxCell id="lDYMOAmmrBvU-g56APDV-2" value="Timal 小程序" style="rounded=0;whiteSpace=wrap;html=1;fillColor=#d5e8d4;strokeColor=#82b366;" vertex="1" parent="1">
          <mxGeometry x="280" y="80" width="200" height="40" as="geometry" />
        </mxCell>
        <mxCell id="lDYMOAmmrBvU-g56APDV-3" value="Bi 后台管理" style="rounded=0;whiteSpace=wrap;html=1;fillColor=#d5e8d4;strokeColor=#82b366;" vertex="1" parent="1">
          <mxGeometry x="480" y="80" width="200" height="40" as="geometry" />
        </mxCell>
        <mxCell id="lDYMOAmmrBvU-g56APDV-4" value="web&amp;nbsp;" style="text;html=1;align=center;verticalAlign=middle;resizable=0;points=[];autosize=1;strokeColor=none;fillColor=none;strokeWidth=2;" vertex="1" parent="1">
          <mxGeometry y="90" width="50" height="30" as="geometry" />
        </mxCell>
        <mxCell id="lDYMOAmmrBvU-g56APDV-9" value="" style="rounded=0;whiteSpace=wrap;html=1;fillColor=#dae8fc;gradientColor=#7ea6e0;strokeColor=#6c8ebf;" vertex="1" parent="1">
          <mxGeometry x="80" y="230" width="600" height="220" as="geometry" />
        </mxCell>
        <mxCell id="lDYMOAmmrBvU-g56APDV-10" value="" style="rounded=0;whiteSpace=wrap;html=1;fillColor=#f9f7ed;strokeColor=#36393d;" vertex="1" parent="1">
          <mxGeometry x="80" y="530" width="450" height="200" as="geometry" />
        </mxCell>
        <mxCell id="lDYMOAmmrBvU-g56APDV-11" value="mysql&lt;br&gt;数据库" style="rounded=1;whiteSpace=wrap;html=1;fillColor=#dae8fc;strokeColor=#6c8ebf;" vertex="1" parent="1">
          <mxGeometry x="100" y="550" width="100" height="60" as="geometry" />
        </mxCell>
        <mxCell id="lDYMOAmmrBvU-g56APDV-12" value="数据层" style="text;html=1;align=center;verticalAlign=middle;resizable=0;points=[];autosize=1;strokeColor=none;fillColor=none;" vertex="1" parent="1">
          <mxGeometry x="10" y="610" width="60" height="30" as="geometry" />
        </mxCell>
        <mxCell id="lDYMOAmmrBvU-g56APDV-13" value="redis&lt;br&gt;缓存" style="rounded=1;whiteSpace=wrap;html=1;fillColor=#d5e8d4;strokeColor=#82b366;" vertex="1" parent="1">
          <mxGeometry x="230" y="550" width="90" height="60" as="geometry" />
        </mxCell>
        <mxCell id="lDYMOAmmrBvU-g56APDV-14" value="mongodb&lt;br&gt;数据埋点" style="rounded=1;whiteSpace=wrap;html=1;fillColor=#ffe6cc;strokeColor=#d79b00;" vertex="1" parent="1">
          <mxGeometry x="340" y="555" width="120" height="60" as="geometry" />
        </mxCell>
        <mxCell id="lDYMOAmmrBvU-g56APDV-15" value="logger&lt;br&gt;日志服务" style="rounded=1;whiteSpace=wrap;html=1;fillColor=#f5f5f5;fontColor=#333333;strokeColor=#666666;" vertex="1" parent="1">
          <mxGeometry x="110" y="660" width="390" height="60" as="geometry" />
        </mxCell>
        <mxCell id="lDYMOAmmrBvU-g56APDV-18" value="会员服务" style="rounded=1;whiteSpace=wrap;html=1;fillColor=#dae8fc;strokeColor=#6c8ebf;" vertex="1" parent="1">
          <mxGeometry x="130" y="260" width="120" height="60" as="geometry" />
        </mxCell>
        <mxCell id="lDYMOAmmrBvU-g56APDV-19" value="skin" style="rounded=1;whiteSpace=wrap;html=1;fillColor=#f8cecc;strokeColor=#b85450;" vertex="1" parent="1">
          <mxGeometry x="310" y="260" width="114" height="60" as="geometry" />
        </mxCell>
        <mxCell id="lDYMOAmmrBvU-g56APDV-20" value="dl&lt;br&gt;注册、打标" style="rounded=1;whiteSpace=wrap;html=1;fillColor=#fff2cc;strokeColor=#d6b656;" vertex="1" parent="1">
          <mxGeometry x="390" y="360" width="120" height="60" as="geometry" />
        </mxCell>
        <mxCell id="lDYMOAmmrBvU-g56APDV-21" value="埋点" style="rounded=1;whiteSpace=wrap;html=1;fillColor=#d5e8d4;strokeColor=#82b366;" vertex="1" parent="1">
          <mxGeometry x="100" y="360" width="120" height="60" as="geometry" />
        </mxCell>
        <mxCell id="lDYMOAmmrBvU-g56APDV-24" value="小程序后台管理&lt;br&gt;数据报表" style="rounded=1;whiteSpace=wrap;html=1;fillColor=#f5f5f5;fontColor=#333333;strokeColor=#666666;" vertex="1" parent="1">
          <mxGeometry x="490" y="260" width="120" height="60" as="geometry" />
        </mxCell>
        <mxCell id="lDYMOAmmrBvU-g56APDV-23" value="job &lt;br&gt;数据统计分析" style="rounded=1;whiteSpace=wrap;html=1;fillColor=#e1d5e7;strokeColor=#9673a6;" vertex="1" parent="1">
          <mxGeometry x="530" y="360" width="120" height="60" as="geometry" />
        </mxCell>
        <mxCell id="lDYMOAmmrBvU-g56APDV-28" value="" style="endArrow=classic;html=1;rounded=0;strokeWidth=2;" edge="1" parent="1">
          <mxGeometry relative="1" as="geometry">
            <mxPoint x="360" y="130" as="sourcePoint" />
            <mxPoint x="360" y="220" as="targetPoint" />
          </mxGeometry>
        </mxCell>
        <mxCell id="lDYMOAmmrBvU-g56APDV-29" value="Label" style="edgeLabel;resizable=0;html=1;align=center;verticalAlign=middle;rounded=1;" connectable="0" vertex="1" parent="lDYMOAmmrBvU-g56APDV-28">
          <mxGeometry relative="1" as="geometry" />
        </mxCell>
        <mxCell id="lDYMOAmmrBvU-g56APDV-30" value="" style="endArrow=classic;html=1;rounded=0;strokeWidth=2;" edge="1" parent="1">
          <mxGeometry relative="1" as="geometry">
            <mxPoint x="189.5" y="130" as="sourcePoint" />
            <mxPoint x="189.5" y="220" as="targetPoint" />
          </mxGeometry>
        </mxCell>
        <mxCell id="lDYMOAmmrBvU-g56APDV-31" value="&lt;span style=&quot;white-space: pre;&quot;&gt;	&lt;/span&gt;Label" style="edgeLabel;resizable=0;html=1;align=center;verticalAlign=middle;rounded=1;" connectable="0" vertex="1" parent="lDYMOAmmrBvU-g56APDV-30">
          <mxGeometry relative="1" as="geometry" />
        </mxCell>
        <mxCell id="lDYMOAmmrBvU-g56APDV-32" value="" style="endArrow=classic;html=1;rounded=0;strokeWidth=2;" edge="1" parent="1">
          <mxGeometry relative="1" as="geometry">
            <mxPoint x="559.5" y="130" as="sourcePoint" />
            <mxPoint x="559.5" y="220" as="targetPoint" />
          </mxGeometry>
        </mxCell>
        <mxCell id="lDYMOAmmrBvU-g56APDV-33" value="Label" style="edgeLabel;resizable=0;html=1;align=center;verticalAlign=middle;rounded=1;" connectable="0" vertex="1" parent="lDYMOAmmrBvU-g56APDV-32">
          <mxGeometry relative="1" as="geometry" />
        </mxCell>
        <mxCell id="lDYMOAmmrBvU-g56APDV-43" value="" style="endArrow=classic;startArrow=classic;html=1;rounded=0;strokeWidth=5;entryX=0.135;entryY=1.005;entryDx=0;entryDy=0;entryPerimeter=0;" edge="1" parent="1" target="lDYMOAmmrBvU-g56APDV-9">
          <mxGeometry width="50" height="50" relative="1" as="geometry">
            <mxPoint x="160" y="530" as="sourcePoint" />
            <mxPoint x="210" y="480" as="targetPoint" />
          </mxGeometry>
        </mxCell>
        <mxCell id="lDYMOAmmrBvU-g56APDV-45" value="" style="endArrow=classic;startArrow=classic;html=1;rounded=0;strokeWidth=5;entryX=0.135;entryY=1.005;entryDx=0;entryDy=0;entryPerimeter=0;" edge="1" parent="1">
          <mxGeometry width="50" height="50" relative="1" as="geometry">
            <mxPoint x="440" y="528.9" as="sourcePoint" />
            <mxPoint x="441" y="449.9999999999999" as="targetPoint" />
          </mxGeometry>
        </mxCell>
        <mxCell id="lDYMOAmmrBvU-g56APDV-46" value="" style="endArrow=classic;startArrow=classic;html=1;rounded=0;strokeWidth=5;entryX=0.135;entryY=1.005;entryDx=0;entryDy=0;entryPerimeter=0;" edge="1" parent="1">
          <mxGeometry width="50" height="50" relative="1" as="geometry">
            <mxPoint x="280" y="528.9" as="sourcePoint" />
            <mxPoint x="281" y="449.9999999999999" as="targetPoint" />
          </mxGeometry>
        </mxCell>
        <mxCell id="lDYMOAmmrBvU-g56APDV-48" value="监控警告&lt;br&gt;DingTalk" style="rounded=1;whiteSpace=wrap;html=1;fillColor=#cdeb8b;strokeColor=#36393d;" vertex="1" parent="1">
          <mxGeometry x="240" y="360" width="120" height="60" as="geometry" />
        </mxCell>
        <mxCell id="lDYMOAmmrBvU-g56APDV-49" value="" style="rounded=0;whiteSpace=wrap;html=1;" vertex="1" parent="1">
          <mxGeometry x="80" y="140" height="60" as="geometry" />
        </mxCell>
        <mxCell id="lDYMOAmmrBvU-g56APDV-51" value="jwt 鉴权、rage 限流" style="rounded=0;whiteSpace=wrap;html=1;" vertex="1" parent="1">
          <mxGeometry x="80" y="150" width="600" height="40" as="geometry" />
        </mxCell>
        <mxCell id="lDYMOAmmrBvU-g56APDV-52" value="网关" style="text;html=1;align=center;verticalAlign=middle;resizable=0;points=[];autosize=1;strokeColor=none;fillColor=none;strokeWidth=2;" vertex="1" parent="1">
          <mxGeometry y="160" width="50" height="30" as="geometry" />
        </mxCell>
        <mxCell id="lDYMOAmmrBvU-g56APDV-53" value="服务|业务层" style="text;html=1;align=center;verticalAlign=middle;resizable=0;points=[];autosize=1;strokeColor=none;fillColor=none;" vertex="1" parent="1">
          <mxGeometry x="-20" y="315" width="90" height="30" as="geometry" />
        </mxCell>
        <mxCell id="lDYMOAmmrBvU-g56APDV-55" value="" style="rounded=0;whiteSpace=wrap;html=1;strokeWidth=2;" vertex="1" parent="1">
          <mxGeometry x="560" y="460" width="120" height="270" as="geometry" />
        </mxCell>
        <mxCell id="lDYMOAmmrBvU-g56APDV-56" value="集群服务" style="rounded=0;whiteSpace=wrap;html=1;strokeWidth=2;" vertex="1" parent="1">
          <mxGeometry x="575" y="480" width="90" height="40" as="geometry" />
        </mxCell>
        <mxCell id="lDYMOAmmrBvU-g56APDV-57" value="集群服务" style="rounded=0;whiteSpace=wrap;html=1;strokeWidth=2;" vertex="1" parent="1">
          <mxGeometry x="575" y="530" width="90" height="40" as="geometry" />
        </mxCell>
        <mxCell id="lDYMOAmmrBvU-g56APDV-58" value="集群服务" style="rounded=0;whiteSpace=wrap;html=1;strokeWidth=2;" vertex="1" parent="1">
          <mxGeometry x="575" y="584.5" width="90" height="40" as="geometry" />
        </mxCell>
        <mxCell id="lDYMOAmmrBvU-g56APDV-59" value="集群服务" style="rounded=0;whiteSpace=wrap;html=1;strokeWidth=2;" vertex="1" parent="1">
          <mxGeometry x="575" y="630" width="90" height="40" as="geometry" />
        </mxCell>
        <mxCell id="lDYMOAmmrBvU-g56APDV-60" value="集群服务" style="rounded=0;whiteSpace=wrap;html=1;strokeWidth=2;" vertex="1" parent="1">
          <mxGeometry x="575" y="680" width="90" height="40" as="geometry" />
        </mxCell>
        <mxCell id="lDYMOAmmrBvU-g56APDV-61" value="&lt;b&gt;&lt;font style=&quot;font-size: 16px;&quot;&gt;运维服务监控&lt;/font&gt;&lt;/b&gt;" style="rounded=0;whiteSpace=wrap;html=1;strokeWidth=2;" vertex="1" parent="1">
          <mxGeometry x="690" y="230" width="120" height="500" as="geometry" />
        </mxCell>
      </root>
    </mxGraphModel>
  </diagram>
</mxfile>
